<?xml version="1.0" encoding="utf-8"?>
<!-- Generator: Adobe Illustrator 22.1.0, SVG Export Plug-In . SVG Version: 6.00 Build 0)  -->
<svg version="1.1" id="Layer_1" xmlns="http://www.w3.org/2000/svg" xmlns:xlink="http://www.w3.org/1999/xlink" x="0px" y="0px"
	 viewBox="0 0 12 12" style="enable-background:new 0 0 12 12;" xml:space="preserve">
<g>
	<g>
		<path d="M0.5,8.4c0-1.6,0-3.1,0-4.7c0,0,0,0,0,0c0-0.1,0-0.3,0-0.4c0.1-0.8,0.5-1.4,1.1-1.9C2.3,0.8,3,0.5,3.8,0.5
			c1.5,0,3,0,4.5,0c0.3,0,0.5,0,0.8,0.1c0.7,0.2,1.3,0.6,1.7,1.1c0.5,0.6,0.7,1.3,0.7,2c0,1.5,0,3,0,4.5c0,0.3,0,0.7-0.2,1
			c-0.3,0.9-0.8,1.5-1.6,1.9c-0.3,0.2-0.7,0.3-1.1,0.3c-0.1,0-0.1,0-0.2,0c-1.6,0-3.2,0-4.8,0c-0.1,0-0.1,0-0.2,0
			c-0.3,0-0.7-0.1-1-0.3c-0.7-0.4-1.3-0.9-1.6-1.7C0.6,9.2,0.6,8.9,0.5,8.6C0.5,8.5,0.5,8.4,0.5,8.4z M11,6c0-0.7,0-1.5,0-2.2
			c0-0.2,0-0.4-0.1-0.6c-0.1-0.5-0.3-1-0.7-1.4C9.7,1.3,9,1,8.2,1c-1.5,0-3,0-4.5,0C3.6,1,3.4,1,3.2,1C2.5,1.2,1.9,1.6,1.5,2.2
			C1.2,2.7,1,3.2,1,3.8c0,1.5,0,3,0,4.4c0,0.2,0,0.4,0.1,0.6C1.2,9.5,1.5,10,2,10.4C2.5,10.8,3.1,11,3.8,11c1.5,0,3,0,4.4,0
			c0.3,0,0.5,0,0.8-0.1c0.7-0.2,1.3-0.7,1.7-1.3C10.9,9.2,11,8.7,11,8.2C11,7.5,11,6.7,11,6z"/>
		<path d="M3.6,11.6c-0.1,0-0.1,0-0.2,0c-0.4,0-0.7-0.1-1-0.3C1.6,10.9,1,10.3,0.7,9.6C0.5,9.3,0.5,9,0.4,8.6l0-0.3l0-4.8l0-0.1
			c0-0.1,0-0.2,0-0.3c0.1-0.8,0.5-1.5,1.2-2C2.2,0.7,3,0.4,3.8,0.4c1,0,2.1,0,3.1,0h1.3c0.3,0,0.6,0,0.8,0.1
			c0.7,0.2,1.3,0.6,1.8,1.1c0.5,0.6,0.7,1.3,0.7,2.1c0,1.1,0,2.1,0,3.2l0,1.4c0,0.3-0.1,0.7-0.2,1c-0.3,0.9-0.8,1.5-1.7,2
			c-0.3,0.2-0.7,0.3-1.1,0.3l-0.2,0H3.6z M0.6,8.4l0,0.2c0,0.3,0.1,0.6,0.2,0.9c0.3,0.7,0.8,1.3,1.6,1.6c0.3,0.1,0.6,0.2,1,0.3
			c0.1,0,0.1,0,0.2,0l5,0c0.4,0,0.7-0.2,1.1-0.3c0.8-0.4,1.3-1,1.6-1.9c0.1-0.3,0.1-0.6,0.1-0.9V6.9c0-1.1,0-2.1,0-3.2
			c0-0.7-0.2-1.4-0.7-2c-0.4-0.5-1-0.9-1.7-1.1C8.8,0.6,8.5,0.6,8.2,0.6l-1.3,0c-1,0-2.1,0-3.1,0c-0.8,0-1.4,0.2-2,0.7
			c-0.6,0.5-1,1.1-1.1,1.9c0,0.1,0,0.2,0,0.3l0,0.2L0.6,8.4z M8.2,11.1H3.8c-0.7,0-1.3-0.2-1.8-0.6C1.4,10,1.1,9.5,1,8.9
			c0-0.2-0.1-0.4-0.1-0.7c0-1.5,0-3,0-4.4c0-0.6,0.2-1.2,0.5-1.7c0.4-0.6,1-1,1.8-1.2c0.2,0,0.3,0,0.5,0h1.6c1,0,1.9,0,2.9,0
			c0.8,0,1.5,0.3,2,0.9c0.4,0.4,0.6,0.9,0.8,1.4c0,0.2,0.1,0.4,0.1,0.6v4.4c0,0.5-0.1,1-0.4,1.4c-0.4,0.7-1,1.1-1.7,1.4
			C8.8,11.1,8.5,11.1,8.2,11.1z M6.4,1.1c-0.4,0-0.7,0-1.1,0H3.8c-0.2,0-0.3,0-0.5,0C2.6,1.3,2,1.6,1.6,2.2c-0.3,0.4-0.5,1-0.5,1.5
			c0,1.5,0,3,0,4.4c0,0.2,0,0.4,0.1,0.6c0.1,0.6,0.4,1.1,0.9,1.5c0.5,0.4,1.1,0.6,1.7,0.6h4.4c0.3,0,0.5,0,0.7-0.1
			c0.7-0.2,1.2-0.6,1.6-1.3c0.2-0.4,0.3-0.8,0.3-1.3V3.8c0-0.2,0-0.4,0-0.5c-0.1-0.5-0.3-1-0.7-1.3C9.6,1.4,9,1.1,8.2,1.1
			C7.6,1.1,7,1.1,6.4,1.1z"/>
	</g>
	<g>
		<path d="M8.8,6c0,1.5-1.2,2.7-2.7,2.7C4.5,8.8,3.2,7.5,3.3,6c0-1.5,1.2-2.7,2.8-2.7C7.5,3.3,8.8,4.5,8.8,6z M8.2,6
			c0-1.2-1-2.2-2.2-2.3c-1.2,0-2.3,1-2.3,2.2c0,1.2,1,2.3,2.2,2.3C7.2,8.3,8.2,7.3,8.2,6z"/>
		<path d="M6,8.9C5.2,8.9,4.5,8.6,4,8C3.4,7.5,3.1,6.8,3.2,6c0-0.8,0.3-1.5,0.8-2c0.5-0.5,1.3-0.8,2-0.8c0,0,0,0,0,0
			c1.6,0,2.8,1.3,2.8,2.9H8.8h0.1C8.8,7.6,7.6,8.9,6,8.9z M6,3.4c-0.7,0-1.4,0.3-1.9,0.8C3.6,4.6,3.4,5.3,3.4,6
			c0,0.7,0.3,1.4,0.8,1.9C4.6,8.4,5.3,8.7,6,8.7c1.5,0,2.6-1.2,2.6-2.6C8.7,4.5,7.5,3.4,6,3.4C6,3.4,6,3.4,6,3.4z M6,8.3
			C6,8.3,6,8.3,6,8.3c-0.6,0-1.2-0.2-1.7-0.7C3.9,7.2,3.6,6.6,3.7,6c0-1.3,1.1-2.3,2.4-2.3c0,0,0,0,0,0c1.3,0,2.3,1.1,2.3,2.4H8.2
			h0.1C8.3,7.3,7.3,8.3,6,8.3z M6,3.9c-1.2,0-2.1,1-2.1,2.1c0,0.6,0.2,1.1,0.6,1.5C4.9,7.9,5.4,8.1,6,8.2c0,0,0,0,0,0
			c1.2,0,2.2-1,2.2-2.1C8.2,4.8,7.2,3.9,6,3.9C6,3.9,6,3.9,6,3.9z"/>
	</g>
	<g>
		<path d="M9,3.5C8.7,3.5,8.5,3.3,8.5,3c0-0.3,0.2-0.5,0.5-0.5c0.3,0,0.5,0.2,0.5,0.5C9.5,3.3,9.3,3.5,9,3.5z"/>
		<path d="M9,3.6C8.7,3.6,8.4,3.3,8.4,3c0-0.3,0.3-0.6,0.6-0.6c0,0,0,0,0,0c0.2,0,0.3,0.1,0.4,0.2C9.5,2.7,9.6,2.8,9.6,3
			C9.6,3.3,9.3,3.6,9,3.6z M9,2.6C9,2.6,9,2.6,9,2.6C8.8,2.6,8.6,2.8,8.6,3c0,0.2,0.2,0.4,0.4,0.4c0.2,0,0.4-0.2,0.4-0.4
			c0-0.1,0-0.2-0.1-0.3C9.2,2.6,9.1,2.6,9,2.6z"/>
	</g>
</g>
</svg>
