<?xml version="1.0" encoding="utf-8"?>
<!-- Generator: Adobe Illustrator 22.1.0, SVG Export Plug-In . SVG Version: 6.00 Build 0)  -->
<svg version="1.1" id="Layer_1" xmlns="http://www.w3.org/2000/svg" xmlns:xlink="http://www.w3.org/1999/xlink" x="0px" y="0px"
	 viewBox="0 0 12 12" style="enable-background:new 0 0 12 12;" xml:space="preserve">
<style type="text/css">
	.st0{fill:#FFFFFF;}
</style>
<g>
	<path class="st0" d="M11.6,3.7c0-0.8-0.3-1.5-0.7-2.1c-0.5-0.6-1.1-1-1.8-1.1C8.8,0.4,8.5,0.4,8.2,0.4H6.9c-1,0-2.1,0-3.1,0
		C3,0.4,2.2,0.7,1.6,1.2c-0.6,0.5-1,1.2-1.2,2c0,0.1,0,0.2,0,0.3l0,0.1l0,4.8l0,0.3c0,0.3,0.1,0.6,0.3,0.9c0.3,0.8,0.9,1.4,1.7,1.7
		c0.3,0.2,0.7,0.3,1,0.3c0.1,0,0.1,0,0.2,0h4.9l0.2,0c0.4,0,0.8-0.2,1.1-0.3c0.8-0.4,1.4-1.1,1.7-2c0.1-0.3,0.2-0.6,0.2-1l0-1.4
		C11.6,5.9,11.6,4.8,11.6,3.7z M3.3,1.1c0.2,0,0.3,0,0.5,0h1.6c0.4,0,0.7,0,1.1,0c0.6,0,1.2,0,1.8,0c0.7,0,1.4,0.3,1.9,0.8
		c0.4,0.4,0.6,0.8,0.7,1.3c0,0.2,0,0.3,0,0.5v4.4c0,0.5-0.1,0.9-0.3,1.3c-0.4,0.6-0.9,1.1-1.6,1.3c-0.2,0.1-0.5,0.1-0.7,0.1H3.8
		c-0.7,0-1.2-0.2-1.7-0.6C1.6,9.9,1.3,9.4,1.2,8.8c0-0.2-0.1-0.4-0.1-0.6c0-1.5,0-3,0-4.4c0-0.6,0.2-1.1,0.5-1.5
		C2,1.6,2.6,1.3,3.3,1.1z"/>
	<path class="st0" d="M6,8.9c1.6,0,2.8-1.3,2.8-2.8c0-1.6-1.3-2.8-2.8-2.9c0,0,0,0,0,0C5.2,3.2,4.5,3.4,4,4C3.5,4.5,3.2,5.2,3.2,6
		c0,0.8,0.3,1.5,0.8,2C4.5,8.6,5.2,8.9,6,8.9z M3.9,6c0-1.2,1-2.1,2.1-2.1c0,0,0,0,0,0c1.2,0,2.1,1,2.1,2.2c0,1.2-1,2.1-2.2,2.1
		c0,0,0,0,0,0c-0.6,0-1.1-0.2-1.5-0.6C4.1,7.1,3.8,6.6,3.9,6z"/>
	<path class="st0" d="M9,3.6c0.3,0,0.6-0.3,0.6-0.6c0-0.2-0.1-0.3-0.2-0.4C9.3,2.5,9.2,2.4,9,2.4c0,0,0,0,0,0C8.7,2.4,8.4,2.7,8.4,3
		C8.4,3.3,8.7,3.6,9,3.6z"/>
</g>
</svg>
